<svg xmlns="http://www.w3.org/2000/svg" width="48" height="48" viewBox="0 0 48 48"><path fill="#bdbdbd" d="M18 8c.494 0 .958.192 1.307.542l14.151 14.151a1.85 1.85 0 0 1 0 2.614L19.307 39.459A1.84 1.84 0 0 1 18 40c-.494 0-.958-.192-1.307-.541L2.541 25.307a1.85 1.85 0 0 1 0-2.614L16.693 8.542C17.042 8.192 17.506 8 18 8m0-2c-.985 0-1.97.376-2.721 1.127L1.127 21.279a3.85 3.85 0 0 0 0 5.443l14.151 14.151C16.03 41.624 17.015 42 18 42s1.97-.376 2.721-1.127l14.151-14.151a3.85 3.85 0 0 0 0-5.443L20.721 7.127A3.84 3.84 0 0 0 18 6"/><path fill="#d32f2f" d="M46.873 21.279a3.85 3.85 0 0 1 0 5.443L32.721 40.873a3.85 3.85 0 0 1-5.443 0L13.127 26.721a3.85 3.85 0 0 1 0-5.443L27.279 7.127a3.85 3.85 0 0 1 5.443 0z"/></svg>