<svg xmlns="http://www.w3.org/2000/svg" width="49" height="67" viewBox="0 0 49 67"><defs><radialGradient id="o" cx="3.168%" cy="2.717%" r="161.249%" fx="3.168%" fy="2.717%" gradientTransform="matrix(1 0 0 .72727 0 .007)"><stop offset="0%" stop-color="#fff" stop-opacity=".1"/><stop offset="100%" stop-color="#fff" stop-opacity="0"/></radialGradient><linearGradient id="d" x1="50.005%" x2="50.005%" y1="8.586%" y2="100.014%"><stop offset="0%" stop-color="#263238" stop-opacity=".2"/><stop offset="100%" stop-color="#263238" stop-opacity=".02"/></linearGradient><path id="a" d="M29.583 0H4.438A4.45 4.45 0 0 0 0 4.438v56.208a4.45 4.45 0 0 0 4.438 4.437h38.458a4.45 4.45 0 0 0 4.437-4.437V17.75z"/></defs><g fill="none" fill-rule="evenodd" transform="translate(.833 .958)"><mask id="b" fill="#fff"><use href="#a"/></mask><path fill="#0f9d58" fill-rule="nonzero" d="M29.583 0H4.438A4.45 4.45 0 0 0 0 4.438v56.208a4.45 4.45 0 0 0 4.438 4.437h38.458a4.45 4.45 0 0 0 4.437-4.437V17.75L36.98 10.354z" mask="url(#b)"/><mask id="c" fill="#fff"><use href="#a"/></mask><path fill="#f1f1f1" fill-rule="nonzero" d="M11.833 31.802V53.25H35.5V31.802zm10.355 18.49h-7.396v-3.698h7.396zm0-5.917h-7.396v-3.698h7.396zm0-5.917h-7.396V34.76h7.396zm10.354 11.834h-7.396v-3.698h7.396zm0-5.917h-7.396v-3.698h7.396zm0-5.917h-7.396V34.76h7.396z" mask="url(#c)"/><mask id="f" fill="#fff"><use href="#a"/></mask><path fill="url(#d)" fill-rule="nonzero" d="M30.881 16.452 47.333 32.9V17.75z" mask="url(#f)"/><mask id="h" fill="#fff"><use href="#a"/></mask><g mask="url(#h)"><path fill="#87ceac" fill-rule="nonzero" d="M29.583 0v13.313a4.436 4.436 0 0 0 4.438 4.437h13.312z"/></g><mask id="i" fill="#fff"><use href="#a"/></mask><path fill="#fff" fill-opacity=".2" fill-rule="nonzero" d="M4.438 0A4.45 4.45 0 0 0 0 4.438v.37A4.45 4.45 0 0 1 4.438.37h25.145V0z" mask="url(#i)"/><mask id="k" fill="#fff"><use href="#a"/></mask><path fill="#263238" fill-opacity=".2" fill-rule="nonzero" d="M42.896 64.714H4.438A4.45 4.45 0 0 1 0 60.276v.37a4.45 4.45 0 0 0 4.438 4.437h38.458a4.45 4.45 0 0 0 4.437-4.437v-.37a4.45 4.45 0 0 1-4.437 4.438" mask="url(#k)"/><mask id="m" fill="#fff"><use href="#a"/></mask><path fill="#263238" fill-opacity=".1" fill-rule="nonzero" d="M34.02 17.75a4.436 4.436 0 0 1-4.437-4.437v.37a4.436 4.436 0 0 0 4.438 4.437h13.312v-.37z" mask="url(#m)"/><path fill="url(#o)" fill-rule="nonzero" d="M29.583 0H4.438A4.45 4.45 0 0 0 0 4.438v56.208a4.45 4.45 0 0 0 4.438 4.437h38.458a4.45 4.45 0 0 0 4.437-4.437V17.75z"/></g></svg>