<svg xmlns="http://www.w3.org/2000/svg" width="48" height="48" viewBox="0 0 48 48"><path fill="#e040fb" d="M6 10a4 4 0 0 1 4-4h28a4 4 0 0 1 4 4v28a4 4 0 0 1-4 4H10a4 4 0 0 1-4-4z"/><path fill="#020f16" d="M9 9v30h30V9zm12.016 10.174h-2.002v4.434h1.973q.82 0 1.27-.537c.45-.537.449-.879.449-1.563q0-1.065-.459-1.694c-.459-.629-.717-.633-1.231-.64m3.349 5.615Q23.125 26 20.928 26h-1.914v5H16V16.781h4.987q2.11 0 3.364 1.309c1.254 1.309 1.255 2.005 1.255 3.398s-.414 2.493-1.241 3.301M33.2 23.1l-.9-.1c-.8 0-1.3.3-1.5 1v7H28V20.4h2.6l.1 1.1c.4-.9 1-1.3 1.8-1.3.3 0 .6 0 .8.1z"/></svg>