<svg xmlns="http://www.w3.org/2000/svg" xml:space="preserve" viewBox="0 0 1024 1024"><path fill="#242424" d="M764.4 964.5H259.6c-110.5 0-200.1-89.6-200.1-200.1V259.6c0-110.5 89.6-200.1 200.1-200.1h504.7c110.5 0 200.1 89.6 200.1 200.1v504.7c.1 110.6-89.5 200.2-200 200.2"/><linearGradient id="a" x1="507.103" x2="490.078" y1="398.624" y2="145.684" gradientTransform="matrix(1 0 0 -1 0 1024)" gradientUnits="userSpaceOnUse"><stop offset="0" stop-color="#fd5200"/><stop offset=".272" stop-color="#ffdc38"/><stop offset=".963" stop-color="#f3feab"/></linearGradient><path fill="url(#a)" d="M478.9 446.3c-114.3 34-316.2 111.9-325.9 428 36.5-170.2 126.5-194.6 291.9-233.5C610.3 602 700.2 558.2 800 439c99.7-119.2 65.7-289.4 65.7-289.4 0 92.4-65.7 153.2-128.9 197s-143.6 65.7-257.9 99.7"/><linearGradient id="b" x1="348.998" x2="178.654" y1="915.587" y2="258.237" gradientTransform="matrix(1 0 0 -1 0 1024)" gradientUnits="userSpaceOnUse"><stop offset=".407" stop-color="#9e010a"/><stop offset=".624" stop-color="#fc56a4"/><stop offset=".689" stop-color="#f2a780"/><stop offset=".743" stop-color="#ffc78a"/></linearGradient><path fill="url(#b)" d="M153 874.4s0-.1 0 0c.3-8.2.7-16.1 1.2-23.9-.9 8.4-1.4 16.4-1.2 23.9"/><linearGradient id="c" x1="541.526" x2="478.485" y1="308.186" y2="761.344" gradientUnits="userSpaceOnUse"><stop offset=".407" stop-color="#9e010a"/><stop offset=".624" stop-color="#fc56a4"/><stop offset=".689" stop-color="#f2a780"/><stop offset=".743" stop-color="#ffc78a"/></linearGradient><path fill="url(#c)" d="M578.4 601.8C492.5 618 405 616.1 347.6 631.2 245.5 657.9 160.4 779.5 153 874.3c.3-8.1.7-16 1.2-23.9 11.3-103.2 106.4-272.5 315-365.2 66.4-29.5 126.2-60.8 178.2-92.8 33.6-13.1 63-27.6 89.3-45.8 63.2-43.8 128.9-104.6 128.9-197 0 0 5.4 138.8-39.6 257.6-6.2 11.3-13.2 22.2-21.2 32.5-60.6 78.7-132.1 126.9-226.4 162.1"/><linearGradient id="d" x1="670.514" x2="191.386" y1="618.906" y2="273.548" gradientTransform="matrix(1 0 0 -1 0 1024)" gradientUnits="userSpaceOnUse"><stop offset=".075" stop-color="#0c64cc"/><stop offset=".335" stop-color="#1f9fe3"/><stop offset=".485" stop-color="#1b9deb"/><stop offset=".757" stop-color="#72f07f"/><stop offset=".858" stop-color="#dbfec8"/><stop offset=".991" stop-color="#f6f9b1"/></linearGradient><path fill="url(#d)" d="M154.4 846.4c-.6 9.1-1.1 18.4-1.4 27.9-.6-8.6-.1-18 1.4-27.9C174.8 553.5 368 479.3 478.9 446.3c114.3-34 194.6-55.9 257.8-99.7s128.9-104.6 128.9-197c0 0 34.1 170.2-65.7 289.4-99.7 119.2-182.4 70.5-347.8 109.4-150.9 35.6-281.6 194.7-297.7 298"/><linearGradient id="e" x1="656.433" x2="450.178" y1="424.477" y2="547.248" gradientTransform="matrix(1 0 0 -1 0 1024)" gradientUnits="userSpaceOnUse"><stop offset=".025" stop-color="#4226a2"/><stop offset=".277" stop-color="#7357cb"/><stop offset=".472" stop-color="#4783df"/><stop offset=".523" stop-color="#3b8fe4"/><stop offset=".58" stop-color="#3b9de4"/><stop offset=".656" stop-color="#3ba7e4"/><stop offset=".741" stop-color="#3babe4"/></linearGradient><path fill="url(#e)" d="M410.8 565.5c155.7-29.2 252.9-26.8 360-141.1 107-114.3 94.8-274.8 94.8-274.8 0 92.4-65.7 153.2-128.9 197-26.4 18.3-55.8 32.7-89.3 45.8-52 32-123.9 64.7-190.3 94.2-208.6 92.7-291.6 260.6-302.9 363.8-.5 7.8-.9 15.7-1.2 23.9 7.4-94.9 102.2-279.6 257.8-308.8"/><linearGradient id="f" x1="409.471" x2="205.174" y1="9.281" y2="130.886" gradientTransform="matrix(1 0 0 -1 0 1024)" gradientUnits="userSpaceOnUse"><stop offset="0" stop-color="#4226a2"/><stop offset=".322" stop-color="#7357cb"/><stop offset=".628" stop-color="#3b8fe4"/></linearGradient><path fill="url(#f)" d="M153 874.4s0-.1 0 0c.3-8.2.7-16.1 1.2-23.9-.9 8.4-1.4 16.4-1.2 23.9"/><linearGradient id="g" x1="882.349" x2="169.742" y1="770.591" y2="213.64" gradientTransform="matrix(1 0 0 -1 0 1024)" gradientUnits="userSpaceOnUse"><stop offset="0" stop-color="#7c4adf"/><stop offset=".346" stop-color="#e251d8"/><stop offset=".73" stop-color="#fcdfbc"/><stop offset=".831" stop-color="#f6f8b0"/><stop offset=".919" stop-color="#fffff2"/><stop offset=".989" stop-color="#f6f8b0"/></linearGradient><path fill="url(#g)" d="M520.3 470.7C235.7 524.2 150.6 775.5 153 874.4c7.3-94.8 90-204.3 197-262.7 158.1-80.3 323.5-36.5 437.8-153.2s77.8-308.9 77.8-308.9c0 92.4-34.1 180-94.9 231.1-60.7 51-182.3 77-250.4 90"/></svg>