<svg xmlns="http://www.w3.org/2000/svg" width="1em" height="1em" fill="currentColor" fill-rule="evenodd" style="flex:none;line-height:1" viewBox="0 0 24 24"><path fill="#fff" d="M22.369 17.676c-1.387 1.259-3.17 2.378-5.332 3.417q.065.044.13.083l.018.01.019.012c.216.123.42.184.641.184s.426-.061.642-.184l.018-.011.019-.011a4 4 0 0 0 .492-.366l.178-.148c.279-.232.426-.342.625-.456.304-.174.612-.266.949-.266s.645.092.949.266l.023.014c.188.109.334.219.602.442l.178.148c.221.184.346.278.483.36l.028.017.018.01c.21.12.407.181.62.185h.022a.31.31 0 1 1 0 .618c-.337 0-.645-.092-.95-.266l-.09-.054-.022-.014-.022-.013-.02-.014a5 5 0 0 1-.49-.377l-.159-.132a4 4 0 0 0-.483-.36l-.027-.017-.019-.01a1.26 1.26 0 0 0-.641-.185c-.222 0-.426.061-.641.184l-.02.011-.018.011a4 4 0 0 0-.492.366l-.158.132a5 5 0 0 1-.51.39l-.022.014-.022.014-.09.054a1.87 1.87 0 0 1-.95.266 1.87 1.87 0 0 1-.949-.266l-.09-.054-.022-.014-.022-.013-.026-.017a5 5 0 0 1-.425-.325.3.3 0 0 1-.12-.1l-.098-.081a4 4 0 0 0-.483-.36l-.027-.017-.019-.01a1.26 1.26 0 0 0-.641-.185c-.222 0-.426.061-.642.184l-.018.011-.019.011a4 4 0 0 0-.492.366l-.158.132a5 5 0 0 1-.51.39l-.023.014-.022.014-.09.054A1.87 1.87 0 0 1 12 22c-.337 0-.645-.092-.949-.266l-.09-.054-.022-.014-.022-.013-.021-.014a5 5 0 0 1-.49-.377l-.158-.132a4 4 0 0 0-.483-.36l-.028-.017-.018-.01a1.26 1.26 0 0 0-.642-.185 1.26 1.26 0 0 0-.641.184l-.019.011-.018.011a4 4 0 0 0-.492.366l-.158.132a5 5 0 0 1-.511.39l-.022.014-.022.014-.09.054a1.87 1.87 0 0 1-.986.264c-.746-.09-1.319-.38-1.89-.866l-.035-.03-.192-.174-.196-.181-.107-.1-.011-.01a1.5 1.5 0 0 0-.336-.253.3.3 0 0 0-.095-.03h-.005a2 2 0 0 0-.361.11.3.3 0 0 1-.077.061l-.008.005a.3.3 0 0 1-.126.034 6 6 0 0 0-.774.518l-.416.324-.055.043a7 7 0 0 1-.324.236c-.305.207-.552.315-.8.315a.31.31 0 0 1-.01-.618h.01c.09 0 .235-.062.438-.198l.04-.027c.077-.054.163-.117.27-.199l.385-.301.06-.047c.268-.206.506-.373.73-.505l-.633-1.21a.31.31 0 0 1 .254-.451l20.287-1.305a.309.309 0 0 1 .228.537m-1.118.14L2.369 19.03l.423.809q.191-.067.388-.1a.3.3 0 0 1 .052-.005q.197 0 .386.093c.153.073.294.179.483.35l.016.015.092.086.144.134.097.089c.065.06.125.114.16.144.485.418.948.658 1.554.736h.011a1.25 1.25 0 0 0 .6-.172l.021-.011.019-.011.018-.011c.141-.084.266-.178.492-.366l.178-.148c.279-.232.426-.342.625-.456.305-.174.612-.266.95-.266.336 0 .644.092.948.266l.023.014c.188.109.335.219.603.442l.177.148c.222.184.346.278.484.36l.027.017.019.01c.215.124.42.185.641.185s.426-.061.641-.184l.019-.011.018-.011c.141-.084.267-.178.493-.366l.177-.148c.28-.232.427-.342.626-.456.304-.174.612-.266.949-.266s.644.092.949.266l.025.015c.187.109.334.22.603.443 1.867-.878 3.448-1.811 4.73-2.832l.02-.016zM3.653 2.026C6.073 3.06 8.69 4.941 10.8 7.258c2.46 2.7 4.109 5.828 4.637 9.149a.31.31 0 0 1-.421.335c-2.348-.945-4.54-1.258-6.59-1.02-1.739.2-3.337.792-4.816 1.703-.294.182-.62-.182-.405-.454 1.856-2.355 2.581-4.99 2.343-7.794-.195-2.292-1.031-4.61-2.284-6.709a.31.31 0 0 1 .388-.442zM10.04 4.45c1.778.543 3.892 2.102 5.782 4.243 1.984 2.248 3.552 4.934 4.347 7.582a.31.31 0 0 1-.401.38l-.022-.01-.386-.154a11 11 0 0 0-.291-.112l-.016-.006c-.68-.247-1.199-.291-1.944-.101a.31.31 0 0 1-.375-.218C15.378 11.123 13.073 7.276 9.775 5c-.291-.201-.072-.653.266-.55zM4.273 2.996l.008.015c1.028 1.94 1.708 4.031 1.885 6.113.213 2.513-.31 4.906-1.673 7.092l-.02.031.003-.001a12 12 0 0 1 3.825-1.132l.055-.006c1.981-.23 4.083.029 6.309.837l.066.025-.007-.039c-.593-2.95-2.108-5.737-4.31-8.179l-.07-.078c-1.785-1.96-3.944-3.6-6.014-4.65zm7.92 3.238.048.048c2.237 2.295 3.885 5.431 4.974 9.191l.038.132.022-.004c.71-.133 1.284-.063 1.963.18l.027.01.066.024.046.018-.025-.073c-.811-2.307-2.208-4.62-3.936-6.594l-.058-.065c-1.02-1.155-2.103-2.132-3.15-2.856z"/></svg>