<svg xmlns="http://www.w3.org/2000/svg" fill="none" viewBox="0 0 512 512"><defs><linearGradient id="a" x1="0%" x2="100%" y1="0%" y2="100%"><stop offset="0%" stop-color="#ffe066"/><stop offset="50%" stop-color="#ffd23f"/><stop offset="100%" stop-color="#fcbf49"/></linearGradient><linearGradient id="b" x1="0%" x2="0%" y1="0%" y2="100%"><stop offset="0%" stop-color="#f77f00" stop-opacity=".3"/><stop offset="100%" stop-color="#d62828" stop-opacity=".1"/></linearGradient></defs><path fill="url(#a)" stroke="#fcbf49" stroke-width="8" d="M150 200q-50 56-30 120t80 100q80 20 160-20t60-120q-20-100-100-140t-170 60"/><path fill="#fff3b8" d="M180 220q-40 36-30 80t60 60q50 10 110-10t50-70q-10-70-70-100t-120 40" opacity=".6"/><path fill="url(#b)" d="M200 380q60 20 140 0t60-60q-20 20-60 40t-140 20"/><circle cx="240" cy="280" r="12" fill="#fcbf49" opacity=".8"/><circle cx="280" cy="300" r="12" fill="#fcbf49" opacity=".8"/><circle cx="320" cy="280" r="12" fill="#fcbf49" opacity=".8"/><path stroke="#f77f00" stroke-width="2" d="m240 280 40 20 40-20" opacity=".5"/></svg>