<svg xmlns="http://www.w3.org/2000/svg" width="1em" height="1em" style="flex:none;line-height:1" viewBox="0 0 24 24"><path fill="url(#a)" d="M19.503 0H4.496A4.496 4.496 0 0 0 0 4.496v15.007A4.496 4.496 0 0 0 4.496 24h15.007A4.496 4.496 0 0 0 24 19.503V4.496A4.496 4.496 0 0 0 19.503 0"/><path fill="url(#b)" d="M9.726 11.36a.306.306 0 1 1 0 .612.306.306 0 0 1 0-.612"/><path fill="url(#c)" fill-rule="evenodd" d="M8.408 9.561q.05-.014.096.033.218.224.44.447l.021.016q.014.008.024.01l.608.157q.063.016.077.066.014.052-.033.098l-.447.439-.016.022-.01.024-.157.607q-.015.063-.067.077-.051.014-.096-.033l-.44-.446a.1.1 0 0 0-.047-.027l-.607-.156q-.063-.015-.077-.068-.014-.05.033-.096.224-.219.447-.44l.016-.021.01-.025.157-.607q.015-.063.068-.077" clip-rule="evenodd"/><path fill="url(#d)" d="M14.87 9.982a.307.307 0 1 1 0 .613.307.307 0 0 1 0-.613"/><path fill="url(#e)" fill-rule="evenodd" d="M13.553 8.187q.052-.014.097.032l.438.448a.1.1 0 0 0 .046.026l.606.158q.063.015.077.068.014.05-.034.095l-.447.438a.1.1 0 0 0-.027.046l-.157.605q-.016.063-.068.077-.051.014-.096-.033-.218-.225-.437-.447l-.022-.017-.025-.01-.605-.158q-.063-.015-.077-.067-.013-.051.033-.096l.447-.437.017-.022.01-.025.158-.605q.016-.063.066-.076" clip-rule="evenodd"/><path fill="url(#f)" fill-rule="evenodd" d="M9.065 3.343a4.6 4.6 0 0 1 2.284-.311q1.5.172 2.673 1.274a.09.09 0 0 0 .08.022 4.55 4.55 0 0 1 3.046.275l.047.021.116.058a4.58 4.58 0 0 1 2.188 2.398q.313.765.316 1.595.023.622-.135 1.224a.12.12 0 0 0 .03.116 4.5 4.5 0 0 1 1.183 2.168q.433 2.138-.887 3.855l-.136.166a4.55 4.55 0 0 1-2.201 1.387.12.12 0 0 0-.08.077c-.191.551-.384 1.023-.741 1.494-.9 1.186-2.221 1.846-3.711 1.838q-1.781-.009-3.157-1.302a.11.11 0 0 0-.106-.024c-.388.125-.78.144-1.203.139a4.44 4.44 0 0 1-1.946-.467 4.54 4.54 0 0 1-1.61-1.336c-.152-.201-.303-.391-.413-.616a6 6 0 0 1-.37-.961 4.6 4.6 0 0 1-.013-2.299.1.1 0 0 0 .005-.055.1.1 0 0 0-.027-.048 4.5 4.5 0 0 1-1.035-1.651 3.9 3.9 0 0 1-.25-1.192 5.2 5.2 0 0 1 .141-1.6q.506-1.668 1.933-2.619.318-.21.601-.329.322-.134.646-.228a.1.1 0 0 0 .065-.065 4.5 4.5 0 0 1 .828-1.616 4.54 4.54 0 0 1 1.839-1.388m.723 5.735c-.865-.614-2.048-.31-2.483.656q-.339.75-.133 1.58l.108.44.195.712q.12.6.459 1.096l.022.032q.18.213.394.389c1.039.854 2.456.284 2.739-.992l.037-.16.01-.06q.066-.45-.04-.882a36 36 0 0 0-.41-1.517q-.244-.83-.898-1.294m5.328-1.235c-.646-.6-1.643-.623-2.285-.019q-.376.353-.523.949a2.6 2.6 0 0 0 0 1.226l.01.04.042.136q.143.473.264.93.127.476.204.638c.43.905 1.365 1.556 2.382 1.141.946-.386 1.23-1.507 1.016-2.415a10 10 0 0 0-.105-.41q-.224-.874-.321-1.179a2.4 2.4 0 0 0-.684-1.037" clip-rule="evenodd"/><defs><linearGradient id="a" x1="12" x2="12" y1="0" y2="24" gradientUnits="userSpaceOnUse"><stop stop-color="#012659"/><stop offset="1" stop-color="#0968da"/></linearGradient><linearGradient id="b" x1="9.859" x2="14.219" y1="3" y2="21.017" gradientUnits="userSpaceOnUse"><stop stop-color="#fff"/><stop offset="1" stop-color="#6bb6fe"/></linearGradient><linearGradient id="c" x1="9.859" x2="14.219" y1="3" y2="21.017" gradientUnits="userSpaceOnUse"><stop stop-color="#fff"/><stop offset="1" stop-color="#6bb6fe"/></linearGradient><linearGradient id="d" x1="9.859" x2="14.219" y1="3" y2="21.017" gradientUnits="userSpaceOnUse"><stop stop-color="#fff"/><stop offset="1" stop-color="#6bb6fe"/></linearGradient><linearGradient id="e" x1="9.859" x2="14.219" y1="3" y2="21.017" gradientUnits="userSpaceOnUse"><stop stop-color="#fff"/><stop offset="1" stop-color="#6bb6fe"/></linearGradient><linearGradient id="f" x1="9.859" x2="14.219" y1="3" y2="21.017" gradientUnits="userSpaceOnUse"><stop stop-color="#fff"/><stop offset="1" stop-color="#6bb6fe"/></linearGradient></defs></svg>