<svg xmlns="http://www.w3.org/2000/svg" width="350" height="350"><svg><path fill="#fff" d="M0 0h350v350H0z" shape-rendering="crispEdges"/><path d="M11.29 11.29v11.29h11.29V11.29zm11.29 0v11.29h11.29V11.29zm11.29 0v11.29h11.29V11.29zm11.29 0v11.29h11.29V11.29zm11.29 0v11.29h11.29V11.29zm11.29 0v11.29h11.29V11.29zm11.29 0v11.29h11.29V11.29zm56.45 0v11.29h11.29V11.29zm11.29 0v11.29h11.29V11.29zm22.58 0v11.29h11.3V11.29zm11.3 0v11.29h11.29V11.29zm22.58 0v11.29h11.29V11.29zm11.29 0v11.29h11.29V11.29zm11.29 0v11.29h11.29V11.29zm11.29 0v11.29h11.29V11.29zm22.58 0v11.29h11.29V11.29zm11.29 0v11.29h11.29V11.29zm11.29 0v11.29h11.29V11.29zm11.29 0v11.29h11.29V11.29zm11.29 0v11.29h11.29V11.29zm11.29 0v11.29h11.29V11.29zm11.29 0v11.29h11.29V11.29zM11.29 22.58v11.29h11.29V22.58zm67.74 0v11.29h11.29V22.58zm22.58 0v11.29h11.29V22.58zm11.29 0v11.29h11.29V22.58zm11.29 0v11.29h11.29V22.58zm56.46 0v11.29h11.29V22.58zm11.29 0v11.29h11.29V22.58zm67.74 0v11.29h11.29V22.58zm67.74 0v11.29h11.29V22.58zM11.29 33.87v11.29h11.29V33.87zm22.58 0v11.29h11.29V33.87zm11.29 0v11.29h11.29V33.87zm11.29 0v11.29h11.29V33.87zm22.58 0v11.29h11.29V33.87zm22.58 0v11.29h11.29V33.87zm11.29 0v11.29h11.29V33.87zm67.75 0v11.29h11.29V33.87zm11.29 0v11.29h11.29V33.87zm33.87 0v11.29h11.29V33.87zm33.87 0v11.29h11.29V33.87zm22.58 0v11.29h11.29V33.87zm11.29 0v11.29h11.29V33.87zm11.29 0v11.29h11.29V33.87zm22.58 0v11.29h11.29V33.87zM11.29 45.16v11.29h11.29V45.16zm22.58 0v11.29h11.29V45.16zm11.29 0v11.29h11.29V45.16zm11.29 0v11.29h11.29V45.16zm22.58 0v11.29h11.29V45.16zm22.58 0v11.29h11.29V45.16zm11.29 0v11.29h11.29V45.16zm22.58 0v11.29h11.29V45.16zm11.29 0v11.29h11.29V45.16zm11.29 0v11.29h11.29V45.16zm11.29 0v11.29h11.3V45.16zm11.3 0v11.29h11.29V45.16zm11.29 0v11.29h11.29V45.16zm11.29 0v11.29h11.29V45.16zm22.58 0v11.29h11.29V45.16zm33.87 0v11.29h11.29V45.16zm22.58 0v11.29h11.29V45.16zm11.29 0v11.29h11.29V45.16zm11.29 0v11.29h11.29V45.16zm22.58 0v11.29h11.29V45.16zM11.29 56.45v11.29h11.29V56.45zm22.58 0v11.29h11.29V56.45zm11.29 0v11.29h11.29V56.45zm11.29 0v11.29h11.29V56.45zm22.58 0v11.29h11.29V56.45zm22.58 0v11.29h11.29V56.45zm33.87 0v11.29h11.29V56.45zm22.58 0v11.29h11.29V56.45zm22.59 0v11.29h11.29V56.45zm11.29 0v11.29h11.29V56.45zm11.29 0v11.29h11.29V56.45zm22.58 0v11.29h11.29V56.45zm11.29 0v11.29h11.29V56.45zm22.58 0v11.29h11.29V56.45zm22.58 0v11.29h11.29V56.45zm11.29 0v11.29h11.29V56.45zm11.29 0v11.29h11.29V56.45zm22.58 0v11.29h11.29V56.45zM11.29 67.74v11.29h11.29V67.74zm67.74 0v11.29h11.29V67.74zm22.58 0v11.29h11.29V67.74zm11.29 0v11.29h11.29V67.74zm11.29 0v11.29h11.29V67.74zm22.58 0v11.29h11.29V67.74zm79.04 0v11.29h11.29V67.74zm33.87 0v11.29h11.29V67.74zm67.74 0v11.29h11.29V67.74zM11.29 79.03v11.29h11.29V79.03zm11.29 0v11.29h11.29V79.03zm11.29 0v11.29h11.29V79.03zm11.29 0v11.29h11.29V79.03zm11.29 0v11.29h11.29V79.03zm11.29 0v11.29h11.29V79.03zm11.29 0v11.29h11.29V79.03zm22.58 0v11.29h11.29V79.03zm22.58 0v11.29h11.29V79.03zm22.58 0v11.29h11.29V79.03zm22.58 0v11.29h11.3V79.03zm22.59 0v11.29h11.29V79.03zm22.58 0v11.29h11.29V79.03zm22.58 0v11.29h11.29V79.03zm22.58 0v11.29h11.29V79.03zm11.29 0v11.29h11.29V79.03zm11.29 0v11.29h11.29V79.03zm11.29 0v11.29h11.29V79.03zm11.29 0v11.29h11.29V79.03zm11.29 0v11.29h11.29V79.03zm11.29 0v11.29h11.29V79.03zM101.61 90.32v11.29h11.29V90.32zm56.45 0v11.29h11.29V90.32zm11.29 0v11.29h11.3V90.32zm11.3 0v11.29h11.29V90.32zm33.87 0v11.29h11.29V90.32zm11.29 0v11.29h11.29V90.32zm11.29 0v11.29h11.29V90.32zM11.29 101.61v11.29h11.29v-11.29zm45.16 0v11.29h11.29v-11.29zm11.29 0v11.29h11.29v-11.29zm11.29 0v11.29h11.29v-11.29zm45.16 0v11.29h11.29v-11.29zm11.29 0v11.29h11.29v-11.29zm11.29 0v11.29h11.29v-11.29zm22.58 0v11.29h11.3v-11.29zm11.3 0v11.29h11.29v-11.29zm33.87 0v11.29h11.29v-11.29zm11.29 0v11.29h11.29v-11.29zm11.29 0v11.29h11.29v-11.29zm11.29 0v11.29h11.29v-11.29zm11.29 0v11.29h11.29v-11.29zm11.29 0v11.29h11.29v-11.29zm11.29 0v11.29h11.29v-11.29zm11.29 0v11.29h11.29v-11.29zm11.29 0v11.29h11.29v-11.29zm11.29 0v11.29h11.29v-11.29zM33.87 112.9v11.29h11.29V112.9zm11.29 0v11.29h11.29V112.9zm11.29 0v11.29h11.29V112.9zm11.29 0v11.29h11.29V112.9zm33.87 0v11.29h11.29V112.9zm11.29 0v11.29h11.29V112.9zm22.58 0v11.29h11.29V112.9zm11.29 0v11.29h11.29V112.9zm33.88 0v11.29h11.29V112.9zm11.29 0v11.29h11.29V112.9zm11.29 0v11.29h11.29V112.9zm33.87 0v11.29h11.29V112.9zm11.29 0v11.29h11.29V112.9zm11.29 0v11.29h11.29V112.9zm11.29 0v11.29h11.29V112.9zm11.29 0v11.29h11.29V112.9zm22.58 0v11.29h11.29V112.9zM11.29 124.19v11.29h11.29v-11.29zm45.16 0v11.29h11.29v-11.29zm22.58 0v11.29h11.29v-11.29zm33.87 0v11.29h11.29v-11.29zm22.58 0v11.29h11.29v-11.29zm56.46 0v11.29h11.29v-11.29zm11.29 0v11.29h11.29v-11.29zm11.29 0v11.29h11.29v-11.29zM11.29 135.48v11.29h11.29v-11.29zm11.29 0v11.29h11.29v-11.29zm45.16 0v11.29h11.29v-11.29zm22.58 0v11.29h11.29v-11.29zm11.29 0v11.29h11.29v-11.29zm11.29 0v11.29h11.29v-11.29zm11.29 0v11.29h11.29v-11.29zm11.29 0v11.29h11.29v-11.29zm11.29 0v11.29h11.29v-11.29zm45.17 0v11.29h11.29v-11.29zm11.29 0v11.29h11.29v-11.29zm11.29 0v11.29h11.29v-11.29zm11.29 0v11.29h11.29v-11.29zm11.29 0v11.29h11.29v-11.29zm11.29 0v11.29h11.29v-11.29zm22.58 0v11.29h11.29v-11.29zm11.29 0v11.29h11.29v-11.29zm11.29 0v11.29h11.29v-11.29zm22.58 0v11.29h11.29v-11.29zm11.29 0v11.29h11.29v-11.29zM22.58 146.77v11.29h11.29v-11.29zm22.58 0v11.29h11.29v-11.29zm11.29 0v11.29h11.29v-11.29zm22.58 0v11.29h11.29v-11.29zm22.58 0v11.29h11.29v-11.29zm33.87 0v11.29h11.29v-11.29zm56.46 0v11.29h11.29v-11.29zm45.16 0v11.29h11.29v-11.29zm22.58 0v11.29h11.29v-11.29zm22.58 0v11.29h11.29v-11.29zm11.29 0v11.29h11.29v-11.29zm11.29 0v11.29h11.29v-11.29zM11.29 158.06v11.29h11.29v-11.29zm11.29 0v11.29h11.29v-11.29zm22.58 0v11.29h11.29v-11.29zm22.58 0v11.29h11.29v-11.29zm22.58 0v11.29h11.29v-11.29zm22.58 0v11.29h11.29v-11.29zm22.58 0v11.29h11.29v-11.29zm11.29 0v11.29h11.29v-11.29zm11.29 0v11.29h11.29v-11.29zm33.88 0v11.29h11.29v-11.29zm11.29 0v11.29h11.29v-11.29zm22.58 0v11.29h11.29v-11.29zm67.74 0v11.29h11.29v-11.29zm22.58 0v11.29h11.29v-11.29zm11.29 0v11.29h11.29v-11.29zM11.29 169.35v11.3h11.29v-11.3zm11.29 0v11.3h11.29v-11.3zm11.29 0v11.3h11.29v-11.3zm11.29 0v11.3h11.29v-11.3zm11.29 0v11.3h11.29v-11.3zm22.58 0v11.3h11.29v-11.3zm11.29 0v11.3h11.29v-11.3zm11.29 0v11.3h11.29v-11.3zm11.29 0v11.3h11.29v-11.3zm11.29 0v11.3h11.29v-11.3zm11.29 0v11.3h11.29v-11.3zm11.29 0v11.3h11.29v-11.3zm33.88 0v11.3h11.29v-11.3zm22.58 0v11.3h11.29v-11.3zm11.29 0v11.3h11.29v-11.3zm11.29 0v11.3h11.29v-11.3zm45.16 0v11.3h11.29v-11.3zm45.16 0v11.3h11.29v-11.3zm11.29 0v11.3h11.29v-11.3zm-316.13 11.3v11.29h11.29v-11.29zm11.29 0v11.29h11.29v-11.29zm11.29 0v11.29h11.29v-11.29zm11.29 0v11.29h11.29v-11.29zm11.29 0v11.29h11.29v-11.29zm33.87 0v11.29h11.29v-11.29zm45.16 0v11.29h11.29v-11.29zm11.29 0v11.29h11.29v-11.29zm22.58 0v11.29h11.3v-11.29zm11.3 0v11.29h11.29v-11.29zm22.58 0v11.29h11.29v-11.29zm11.29 0v11.29h11.29v-11.29zm11.29 0v11.29h11.29v-11.29zm11.29 0v11.29h11.29v-11.29zm22.58 0v11.29h11.29v-11.29zm33.87 0v11.29h11.29v-11.29zM11.29 191.94v11.29h11.29v-11.29zm11.29 0v11.29h11.29v-11.29zm11.29 0v11.29h11.29v-11.29zm33.87 0v11.29h11.29v-11.29zm11.29 0v11.29h11.29v-11.29zm11.29 0v11.29h11.29v-11.29zm56.45 0v11.29h11.29v-11.29zm33.88 0v11.29h11.29v-11.29zm11.29 0v11.29h11.29v-11.29zm22.58 0v11.29h11.29v-11.29zm33.87 0v11.29h11.29v-11.29zm22.58 0v11.29h11.29v-11.29zm22.58 0v11.29h11.29v-11.29zm22.58 0v11.29h11.29v-11.29zM45.16 203.23v11.29h11.29v-11.29zm22.58 0v11.29h11.29v-11.29zm45.16 0v11.29h11.29v-11.29zm33.87 0v11.29h11.29v-11.29zm11.29 0v11.29h11.29v-11.29zm11.29 0v11.29h11.3v-11.29zm11.3 0v11.29h11.29v-11.29zm56.45 0v11.29h11.29v-11.29zm67.74 0v11.29h11.29v-11.29zm22.58 0v11.29h11.29v-11.29zM33.87 214.52v11.29h11.29v-11.29zm22.58 0v11.29h11.29v-11.29zm11.29 0v11.29h11.29v-11.29zm11.29 0v11.29h11.29v-11.29zm22.58 0v11.29h11.29v-11.29zm11.29 0v11.29h11.29v-11.29zm11.29 0v11.29h11.29v-11.29zm11.29 0v11.29h11.29v-11.29zm45.17 0v11.29h11.29v-11.29zm22.58 0v11.29h11.29v-11.29zm45.16 0v11.29h11.29v-11.29zm11.29 0v11.29h11.29v-11.29zm22.58 0v11.29h11.29v-11.29zm22.58 0v11.29h11.29v-11.29zm11.29 0v11.29h11.29v-11.29zm11.29 0v11.29h11.29v-11.29zM11.29 225.81v11.29h11.29v-11.29zm45.16 0v11.29h11.29v-11.29zm45.16 0v11.29h11.29v-11.29zm11.29 0v11.29h11.29v-11.29zm33.87 0v11.29h11.29v-11.29zm11.29 0v11.29h11.29v-11.29zm22.59 0v11.29h11.29v-11.29zm22.58 0v11.29h11.29v-11.29zm33.87 0v11.29h11.29v-11.29zm22.58 0v11.29h11.29v-11.29zm11.29 0v11.29h11.29v-11.29zm22.58 0v11.29h11.29v-11.29zm11.29 0v11.29h11.29v-11.29zm22.58 0v11.29h11.29v-11.29zM11.29 237.1v11.29h11.29V237.1zm11.29 0v11.29h11.29V237.1zm11.29 0v11.29h11.29V237.1zm11.29 0v11.29h11.29V237.1zm11.29 0v11.29h11.29V237.1zm11.29 0v11.29h11.29V237.1zm11.29 0v11.29h11.29V237.1zm33.87 0v11.29h11.29V237.1zm11.29 0v11.29h11.29V237.1zm33.87 0v11.29h11.29V237.1zm11.29 0v11.29h11.3V237.1zm11.3 0v11.29h11.29V237.1zm22.58 0v11.29h11.29V237.1zm22.58 0v11.29h11.29V237.1zm11.29 0v11.29h11.29V237.1zm11.29 0v11.29h11.29V237.1zm11.29 0v11.29h11.29V237.1zm11.29 0v11.29h11.29V237.1zm11.29 0v11.29h11.29V237.1zm11.29 0v11.29h11.29V237.1zm11.29 0v11.29h11.29V237.1zm-180.65 11.29v11.29h11.29v-11.29zm11.29 0v11.29h11.29v-11.29zm11.29 0v11.29h11.29v-11.29zm11.29 0v11.29h11.29v-11.29zm22.59 0v11.29h11.29v-11.29zm22.58 0v11.29h11.29v-11.29zm33.87 0v11.29h11.29v-11.29zm45.16 0v11.29h11.29v-11.29zm11.29 0v11.29h11.29v-11.29zm11.29 0v11.29h11.29v-11.29zm11.29 0v11.29h11.29v-11.29zm11.29 0v11.29h11.29v-11.29zM11.29 259.68v11.29h11.29v-11.29zm11.29 0v11.29h11.29v-11.29zm11.29 0v11.29h11.29v-11.29zm11.29 0v11.29h11.29v-11.29zm11.29 0v11.29h11.29v-11.29zm11.29 0v11.29h11.29v-11.29zm11.29 0v11.29h11.29v-11.29zm33.87 0v11.29h11.29v-11.29zm11.29 0v11.29h11.29v-11.29zm11.29 0v11.29h11.29v-11.29zm22.58 0v11.29h11.29v-11.29zm45.17 0v11.29h11.29v-11.29zm11.29 0v11.29h11.29v-11.29zm11.29 0v11.29h11.29v-11.29zm11.29 0v11.29h11.29v-11.29zm22.58 0v11.29h11.29v-11.29zm22.58 0v11.29h11.29v-11.29zm22.58 0v11.29h11.29v-11.29zm11.29 0v11.29h11.29v-11.29zM11.29 270.97v11.29h11.29v-11.29zm67.74 0v11.29h11.29v-11.29zm22.58 0v11.29h11.29v-11.29zm11.29 0v11.29h11.29v-11.29zm33.87 0v11.29h11.29v-11.29zm22.58 0v11.29h11.3v-11.29zm22.59 0v11.29h11.29v-11.29zm11.29 0v11.29h11.29v-11.29zm11.29 0v11.29h11.29v-11.29zm22.58 0v11.29h11.29v-11.29zm45.16 0v11.29h11.29v-11.29zm11.29 0v11.29h11.29v-11.29zm11.29 0v11.29h11.29v-11.29zM11.29 282.26v11.29h11.29v-11.29zm22.58 0v11.29h11.29v-11.29zm11.29 0v11.29h11.29v-11.29zm11.29 0v11.29h11.29v-11.29zm22.58 0v11.29h11.29v-11.29zm22.58 0v11.29h11.29v-11.29zm11.29 0v11.29h11.29v-11.29zm11.29 0v11.29h11.29v-11.29zm33.87 0v11.29h11.29v-11.29zm22.59 0v11.29h11.29v-11.29zm22.58 0v11.29h11.29v-11.29zm11.29 0v11.29h11.29v-11.29zm22.58 0v11.29h11.29v-11.29zm11.29 0v11.29h11.29v-11.29zm11.29 0v11.29h11.29v-11.29zm11.29 0v11.29h11.29v-11.29zm11.29 0v11.29h11.29v-11.29zm22.58 0v11.29h11.29v-11.29zm11.29 0v11.29h11.29v-11.29zm11.29 0v11.29h11.29v-11.29zM11.29 293.55v11.29h11.29v-11.29zm22.58 0v11.29h11.29v-11.29zm11.29 0v11.29h11.29v-11.29zm11.29 0v11.29h11.29v-11.29zm22.58 0v11.29h11.29v-11.29zm33.87 0v11.29h11.29v-11.29zm11.29 0v11.29h11.29v-11.29zm33.87 0v11.29h11.29v-11.29zm22.59 0v11.29h11.29v-11.29zm11.29 0v11.29h11.29v-11.29zm11.29 0v11.29h11.29v-11.29zm11.29 0v11.29h11.29v-11.29zm11.29 0v11.29h11.29v-11.29zm11.29 0v11.29h11.29v-11.29zm11.29 0v11.29h11.29v-11.29zm22.58 0v11.29h11.29v-11.29zm11.29 0v11.29h11.29v-11.29zm22.58 0v11.29h11.29v-11.29zm11.29 0v11.29h11.29v-11.29zM11.29 304.84v11.29h11.29v-11.29zm22.58 0v11.29h11.29v-11.29zm11.29 0v11.29h11.29v-11.29zm11.29 0v11.29h11.29v-11.29zm22.58 0v11.29h11.29v-11.29zm33.87 0v11.29h11.29v-11.29zm33.87 0v11.29h11.29v-11.29zm45.17 0v11.29h11.29v-11.29zm11.29 0v11.29h11.29v-11.29zm11.29 0v11.29h11.29v-11.29zm22.58 0v11.29h11.29v-11.29zm45.16 0v11.29h11.29v-11.29zm22.58 0v11.29h11.29v-11.29zm22.58 0v11.29h11.29v-11.29zM11.29 316.13v11.29h11.29v-11.29zm67.74 0v11.29h11.29v-11.29zm56.45 0v11.29h11.29v-11.29zm11.29 0v11.29h11.29v-11.29zm11.29 0v11.29h11.29v-11.29zm45.17 0v11.29h11.29v-11.29zm22.58 0v11.29h11.29v-11.29zm22.58 0v11.29h11.29v-11.29zm33.87 0v11.29h11.29v-11.29zm22.58 0v11.29h11.29v-11.29zm11.29 0v11.29h11.29v-11.29zM11.29 327.42v11.29h11.29v-11.29zm11.29 0v11.29h11.29v-11.29zm11.29 0v11.29h11.29v-11.29zm11.29 0v11.29h11.29v-11.29zm11.29 0v11.29h11.29v-11.29zm11.29 0v11.29h11.29v-11.29zm11.29 0v11.29h11.29v-11.29zm22.58 0v11.29h11.29v-11.29zm11.29 0v11.29h11.29v-11.29zm33.87 0v11.29h11.29v-11.29zm11.29 0v11.29h11.29v-11.29zm22.59 0v11.29h11.29v-11.29zm11.29 0v11.29h11.29v-11.29zm11.29 0v11.29h11.29v-11.29zm33.87 0v11.29h11.29v-11.29zm11.29 0v11.29h11.29v-11.29zm22.58 0v11.29h11.29v-11.29z" shape-rendering="crispEdges"/></svg><circle cx="175" cy="175" r="65.75" fill="#fff" stroke="#000" stroke-width="6"/><svg width="115.5" height="115.5" x="117.25" y="117.25" viewBox="0 0 24 24"><path d="M12 0C5.374 0 0 5.373 0 12c0 5.302 3.438 9.8 8.207 11.387.599.111.793-.261.793-.577v-2.234c-3.338.726-4.033-1.416-4.033-1.416-.546-1.387-1.333-1.756-1.333-1.756-1.089-.745.083-.729.083-.729 1.205.084 1.839 1.237 1.839 1.237 1.07 1.834 2.807 1.304 3.492.997.107-.775.418-1.305.762-1.604-2.665-.305-5.467-1.334-5.467-5.931 0-1.311.469-2.381 1.236-3.221-.124-.303-.535-1.524.117-3.176 0 0 1.008-.322 3.301 1.23A11.5 11.5 0 0 1 12 5.803c1.02.005 2.047.138 3.006.404 2.291-1.552 3.297-1.23 3.297-1.23.653 1.653.242 2.874.118 3.176.77.84 1.235 1.911 1.235 3.221 0 4.609-2.807 5.624-5.479 5.921.43.372.823 1.102.823 2.222v3.293c0 .319.192.694.801.576C20.566 21.797 24 17.3 24 12c0-6.627-5.373-12-12-12"/></svg></svg>