<svg xmlns="http://www.w3.org/2000/svg" width="26" height="26" fill="none" viewBox="0 0 576 160"><g clip-path="url(#a)"><path fill="#ea4b71" fill-rule="evenodd" d="M272 64c-14.911 0-27.439-10.198-30.992-24h-36.677a16 16 0 0 0-15.782 13.37l-1.315 7.89A31.93 31.93 0 0 1 176.835 80a31.93 31.93 0 0 1 10.399 18.74l1.315 7.89A16 16 0 0 0 204.331 120h4.677c3.553-13.802 16.081-24 30.992-24 17.673 0 32 14.327 32 32s-14.327 32-32 32c-14.911 0-27.44-10.198-30.992-24h-4.677c-15.643 0-28.993-11.309-31.565-26.739l-1.315-7.891A16 16 0 0 0 155.669 88h-12.677c-3.552 13.802-16.081 24-30.992 24-14.91 0-27.44-10.198-30.992-24H62.992C59.44 101.802 46.91 112 32 112 14.327 112 0 97.673 0 80s14.327-32 32-32c14.91 0 27.44 10.198 30.992 24h18.016C84.561 58.198 97.09 48 112 48s27.44 10.198 30.992 24h12.677a16 16 0 0 0 15.782-13.37l1.315-7.89C175.338 35.31 188.688 24 204.331 24h36.677C244.56 10.198 257.089 0 272 0c17.673 0 32 14.327 32 32s-14.327 32-32 32m0-16c8.837 0 16-7.163 16-16s-7.163-16-16-16-16 7.163-16 16 7.163 16 16 16M32 96c8.837 0 16-7.163 16-16s-7.163-16-16-16-16 7.163-16 16 7.163 16 16 16m96-16c0 8.837-7.163 16-16 16s-16-7.163-16-16 7.163-16 16-16 16 7.163 16 16m128 48c0 8.837-7.163 16-16 16s-16-7.163-16-16 7.163-16 16-16 16 7.163 16 16" clip-rule="evenodd"/><path fill="#040506" fill-rule="evenodd" d="M480.023 69.183v-.762c5.582-2.796 11.165-7.625 11.165-17.156 0-13.724-11.292-21.985-26.898-21.985-15.986 0-27.405 8.769-27.405 22.24 0 9.15 5.329 14.105 11.165 16.901v.762c-6.471 2.288-14.21 9.15-14.21 20.587 0 13.852 11.419 23.51 30.323 23.51 18.905 0 29.943-9.658 29.943-23.51 0-11.437-7.612-18.172-14.083-20.587m-15.86-28.211c6.344 0 11.039 4.066 11.039 10.929 0 6.862-4.822 10.928-11.039 10.928s-11.419-4.066-11.419-10.928c0-6.99 4.949-10.93 11.419-10.93m0 60.109c-7.359 0-13.322-4.702-13.322-12.708 0-7.244 4.948-12.708 13.195-12.708 8.12 0 13.069 5.337 13.069 12.962 0 7.752-5.71 12.454-12.942 12.454" clip-rule="evenodd"/><path fill="#040506" d="M513.68 112.009h16.24V77.571c0-11.31 6.851-16.266 14.591-16.266 7.612 0 13.576 5.083 13.576 15.503v35.201h16.24V73.504c0-16.647-9.643-26.305-24.741-26.305-9.516 0-14.845 3.812-18.651 8.768h-1.015l-1.396-7.498H513.68zm-143.76 0h-16.24v-63.54h14.844l1.396 7.498h1.015c3.806-4.956 9.135-8.768 18.651-8.768 15.098 0 24.741 9.658 24.741 26.305v38.505h-16.24v-35.2c0-10.421-5.964-15.504-13.576-15.504-7.74 0-14.591 4.956-14.591 16.266z"/></g><defs><clipPath id="a"><path fill="#fff" d="M0 0h576v160H0z"/></clipPath></defs></svg>