<svg xmlns="http://www.w3.org/2000/svg" xml:space="preserve" width="425.197" height="425.197" viewBox="0 0 425.197 425.197"><path fill="#e95420" d="M354.331 212.595c0 78.279-63.45 141.735-141.729 141.735S70.867 290.874 70.867 212.595c0-78.274 63.457-141.728 141.735-141.728s141.729 63.453 141.729 141.728"/><path fill="#fff" d="M139.043 212.595c0 10.064-8.159 18.225-18.23 18.225-10.059 0-18.218-8.16-18.218-18.225 0-10.06 8.159-18.219 18.218-18.219 10.071 0 18.23 8.159 18.23 18.219m103.674 88.606c5.033 8.709 16.173 11.696 24.889 6.67 8.715-5.033 11.701-16.179 6.669-24.895-5.032-8.715-16.173-11.695-24.888-6.663-8.716 5.033-11.702 16.173-6.67 24.888m31.557-158.982c5.032-8.717 2.052-19.86-6.669-24.887-8.71-5.032-19.855-2.046-24.889 6.667-5.032 8.715-2.046 19.857 6.67 24.889s19.862 2.046 24.888-6.669m-61.672 18.413c27.153 0 49.434 20.814 51.761 47.364l26.372-.416c-1.252-19.727-9.809-37.469-22.995-50.551-6.98 2.693-15.079 2.327-22.066-1.71-6.992-4.037-11.359-10.871-12.514-18.275a78.4 78.4 0 0 0-20.558-2.733c-12.471 0-24.259 2.916-34.727 8.103l12.832 23.043a51.9 51.9 0 0 1 21.895-4.825m-51.969 51.963c0-17.577 8.734-33.121 22.097-42.52l-13.54-22.634c-15.684 10.474-27.367 26.451-32.296 45.183 5.833 4.697 9.57 11.897 9.57 19.972 0 8.08-3.738 15.28-9.57 19.978 4.929 18.731 16.612 34.708 32.296 45.188l13.54-22.634c-13.363-9.406-22.097-24.944-22.097-42.533m51.969 51.973a51.8 51.8 0 0 1-21.895-4.83l-12.832 23.043c10.468 5.191 22.255 8.104 34.727 8.104 7.109 0 14.004-.946 20.558-2.729 1.154-7.409 5.521-14.243 12.514-18.273 6.987-4.037 15.086-4.404 22.066-1.711 13.187-13.088 21.743-30.83 22.995-50.557l-26.372-.409c-2.328 26.543-24.608 47.362-51.761 47.362"/></svg>